:FULLY-SPECIFIED
:FORCE-ALL-JOINTS-BE-3DOF
:DEGREES
136
root 7.74087 16.5001 -26.2967 -10.2323 10.5597 5.18951
lfemur -6.26183 13.7392 -21.2393
ltibia 36.285 0 0
lfoot -18.1388 -13.2426 0
ltoes 31.5483 0 0
rfemur -101.438 -25.0076 58.2237
rtibia 94.1956 0 0
rfoot 19.3557 26.4503 0
rtoes -35.6934 0 0
lowerback 17.0703 -3.60951 -9.00371
upperback 5.58622 -6.29756 -2.05782
thorax -2.767 -3.15158 4.0573
lowerneck -12.4501 -0.700036 -0.625698
upperneck 0.284092 -0.990718 3.53195
head 2.27286 -0.376503 1.19394
lclavicle 1.84729e-15 1.54102e-14 0
lhumerus -40.8169 -23.3648 90.2048
lradius 52.755 0 0
lwrist 17.9732 0 0
lhand 9.98908 7.02808 0
lfingers 7.12502 0 0
lthumb 35.1129 33.5286 0
rclavicle 1.84729e-15 1.54102e-14 0
rhumerus -45.2357 -27.4813 -58.4292
rradius 82.5065 0 0
rwrist -39.3531 0 0
rhand -29.2094 -26.835 0
rfingers 7.12502 0 0
rthumb -2.5539 -56.7985 0
137
root 7.75229 16.4975 -26.2832 -10.3801 10.6634 5.24855
lfemur -6.15794 13.8259 -21.2445
ltibia 36.293 0 0
lfoot -17.984 -13.376 0
ltoes 31.4935 0 0
rfemur -102.063 -25.2001 58.521
rtibia 94.6445 0 0
rfoot 19.7337 26.73 0
rtoes -36.1315 0 0
lowerback 17.2221 -3.66475 -9.03464
upperback 5.64838 -6.38349 -2.09669
thorax -2.77469 -3.19562 4.04269
lowerneck -12.4699 -0.68804 -0.645714
upperneck 0.296977 -0.9738 3.5694
head 2.28135 -0.366911 1.20985
lclavicle 2.68786e-15 1.58553e-14 0
lhumerus -40.808 -23.4624 90.1368
lradius 52.8916 0 0
lwrist 18.0904 0 0
lhand 10.1529 7.05709 0
lfingers 7.12502 0 0
lthumb 35.2698 33.5351 0
rclavicle 2.68786e-15 1.58553e-14 0
rhumerus -45.2457 -27.6558 -58.2278
rradius 82.8187 0 0
rwrist -39.7259 0 0
rhand -29.249 -26.8687 0
rfingers 7.12502 0 0
rthumb -2.59209 -56.8322 0
138
root 7.76371 16.4948 -26.2696 -10.5279 10.767 5.30759
lfemur -6.05405 13.9126 -21.2497
ltibia 36.301 0 0
lfoot -17.8292 -13.5095 0
ltoes 31.4387 0 0
rfemur -102.687 -25.3926 58.8183
rtibia 95.0935 0 0
rfoot 20.1118 27.0097 0
rtoes -36.5695 0 0
lowerback 17.374 -3.72 -9.06556
upperback 5.71054 -6.46942 -2.13555
thorax -2.78239 -3.23966 4.02808
lowerneck -12.4898 -0.676045 -0.665731
upperneck 0.309862 -0.956882 3.60684
head 2.28983 -0.35732 1.22576
lclavicle 3.52843e-15 1.63003e-14 0
lhumerus -40.799 -23.5599 90.0689
lradius 53.0282 0 0
lwrist 18.2076 0 0
lhand 10.3167 7.08611 0
lfingers 7.12502 0 0
lthumb 35.4266 33.5415 0
rclavicle 3.52843e-15 1.63003e-14 0
rhumerus -45.2558 -27.8304 -58.0264
rradius 83.1308 0 0
rwrist -40.0987 0 0
rhand -29.2885 -26.9024 0
rfingers 7.12502 0 0
rthumb -2.63029 -56.8659 0
139
root 7.71756 16.4805 -26.2669 -10.0465 11.9082 4.97098
lfemur -6.98791 14.2862 -20.8264
ltibia 36.7829 0 0
lfoot -17.8927 -14.5121 0
ltoes 31.654 0 0
rfemur -102.903 -25.5352 57.3636
rtibia 98.8692 0 0
rfoot 29.3556 22.314 0
rtoes -17.0937 0 0
lowerback 17.1802 -4.06549 -8.86558
upperback 5.54475 -6.87863 -2.15319
thorax -2.83323 -3.43224 3.95824
lowerneck -12.3761 -0.838353 -0.802575
upperneck 0.284744 -1.1632 3.884
head 2.27077 -0.452478 1.32811
lclavicle 5.35725e-14 -1.86858e-14 0
lhumerus -40.1384 -24.6203 90.1707
lradius 52.2274 0 0
lwrist 17.6404 0 0
lhand 11.4487 7.55993 0
lfingers 7.12502 0 0
lthumb 36.499 33.7523 0
rclavicle 5.35725e-14 -1.86858e-14 0
rhumerus -46.1521 -27.9074 -58.8192
rradius 84.1539 0 0
rwrist -38.0524 0 0
rhand -35.3168 -31.2119 0
rfingers 7.12502 0 0
rthumb -8.45048 -61.0228 0
140
root 7.66558 16.4704 -26.2622 -9.48223 12.9399 4.67589
lfemur -7.96661 14.7153 -20.4919
ltibia 37.1457 0 0
lfoot -18.2118 -14.2181 0
ltoes 29.7021 0 0
rfemur -102.044 -26.0897 55.4415
rtibia 101.834 0 0
rfoot 30.0648 22.1515 0
rtoes -14.9879 0 0
lowerback 16.8734 -4.27866 -8.74244
upperback 5.3505 -7.11936 -2.13516
thorax -2.86304 -3.54389 3.92777
lowerneck -12.2514 -1.05106 -0.854284
upperneck 0.247539 -1.44537 4.08912
head 2.24834 -0.588204 1.3882
lclavicle 3.41314e-14 -1.87653e-14 0
lhumerus -39.4368 -25.6005 90.3927
lradius 51.4008 0 0
lwrist 16.4801 0 0
lhand 12.9019 8.13618 0
lfingers 7.12502 0 0
lthumb 37.8664 33.9153 0
rclavicle 3.41314e-14 -1.87653e-14 0
rhumerus -47.1176 -27.1822 -59.982
rradius 84.9388 0 0
rwrist -34.4738 0 0
rhand -37.4776 -37.6225 0
rfingers 7.12502 0 0
rthumb -10.5327 -102.344 0
141
root 7.61359 16.4603 -26.2576 -8.91797 13.9715 4.38081
lfemur -8.94531 15.1444 -20.1573
ltibia 37.5085 0 0
lfoot -18.5309 -13.9241 0
ltoes 27.7502 0 0
rfemur -101.186 -26.6442 53.5195
rtibia 104.798 0 0
rfoot 30.7739 21.989 0
rtoes -12.8821 0 0
lowerback 16.5667 -4.49183 -8.6193
upperback 5.15625 -7.36009 -2.11713
thorax -2.89285 -3.65554 3.8973
lowerneck -12.1266 -1.26377 -0.905993
upperneck 0.210335 -1.72754 4.29423
head 2.2259 -0.723931 1.44829
lclavicle 1.46902e-14 -1.88448e-14 0
lhumerus -38.7352 -26.5808 90.6147
lradius 50.5741 0 0
lwrist 15.3197 0 0
lhand 14.3551 8.71244 0
lfingers 7.12502 0 0
lthumb 39.2338 34.0783 0
rclavicle 1.46902e-14 -1.88448e-14 0
rhumerus -48.0831 -26.4569 -61.1448
rradius 85.7237 0 0
rwrist -30.8952 0 0
rhand -39.6384 -44.033 0
rfingers 7.12502 0 0
rthumb -12.615 -143.666 0
